<svg width="26" height="26" viewBox="0 0 26 26" fill="none" xmlns="http://www.w3.org/2000/svg">
<g clip-path="url(#clip0_75_118)">
<path d="M13 2.16666C7.01999 2.16666 2.16666 7.01999 2.16666 13C2.16666 18.98 7.01999 23.8333 13 23.8333C18.98 23.8333 23.8333 18.98 23.8333 13C23.8333 7.01999 18.98 2.16666 13 2.16666ZM7.65916 19.8033C8.12499 18.8283 10.9633 17.875 13 17.875C15.0367 17.875 17.8858 18.8283 18.3408 19.8033C16.8675 20.9733 15.015 21.6667 13 21.6667C10.985 21.6667 9.13249 20.9733 7.65916 19.8033ZM19.89 18.2325C18.3408 16.3475 14.5817 15.7083 13 15.7083C11.4183 15.7083 7.65916 16.3475 6.10999 18.2325C5.00499 16.7808 4.33332 14.9717 4.33332 13C4.33332 8.22249 8.22249 4.33332 13 4.33332C17.7775 4.33332 21.6667 8.22249 21.6667 13C21.6667 14.9717 20.995 16.7808 19.89 18.2325ZM13 6.49999C10.8983 6.49999 9.20832 8.18999 9.20832 10.2917C9.20832 12.3933 10.8983 14.0833 13 14.0833C15.1017 14.0833 16.7917 12.3933 16.7917 10.2917C16.7917 8.18999 15.1017 6.49999 13 6.49999ZM13 11.9167C12.1008 11.9167 11.375 11.1908 11.375 10.2917C11.375 9.39249 12.1008 8.66666 13 8.66666C13.8992 8.66666 14.625 9.39249 14.625 10.2917C14.625 11.1908 13.8992 11.9167 13 11.9167Z" fill="white" fill-opacity="0.97"/>
</g>
<defs>
<clipPath id="clip0_75_118">
<rect width="26" height="26" fill="white"/>
</clipPath>
</defs>
</svg>
