<svg width="30" height="31" viewBox="0 0 30 31" fill="none" xmlns="http://www.w3.org/2000/svg">
<g filter="url(#filter0_d_1_6)">
<path d="M25.56 13.75C25.56 12.97 25.49 12.22 25.36 11.5H15V15.755H20.92C20.665 17.13 19.89 18.295 18.725 19.075V21.835H22.28C24.36 19.92 25.56 17.1 25.56 13.75Z" fill="#4285F4"/>
<path d="M15 24.5C17.97 24.5 20.46 23.515 22.28 21.835L18.725 19.075C17.74 19.735 16.48 20.125 15 20.125C12.135 20.125 9.71004 18.19 8.84504 15.59H5.17004V18.44C6.98004 22.035 10.7 24.5 15 24.5Z" fill="#34A853"/>
<path d="M8.845 15.59C8.625 14.93 8.5 14.225 8.5 13.5C8.5 12.775 8.625 12.07 8.845 11.41V8.56H5.17C4.4 10.0929 3.99932 11.7846 4 13.5C4 15.275 4.425 16.955 5.17 18.44L8.845 15.59Z" fill="#FBBC05"/>
<path d="M15 6.875C16.615 6.875 18.065 7.43 19.205 8.52L22.36 5.365C20.455 3.59 17.965 2.5 15 2.5C10.7 2.5 6.98004 4.965 5.17004 8.56L8.84504 11.41C9.71004 8.81 12.135 6.875 15 6.875Z" fill="#EA4335"/>
</g>
<defs>
<filter id="filter0_d_1_6" x="-1" y="-0.5" width="32" height="32" filterUnits="userSpaceOnUse" color-interpolation-filters="sRGB">
<feFlood flood-opacity="0" result="BackgroundImageFix"/>
<feColorMatrix in="SourceAlpha" type="matrix" values="0 0 0 0 0 0 0 0 0 0 0 0 0 0 0 0 0 0 127 0" result="hardAlpha"/>
<feOffset dy="2"/>
<feGaussianBlur stdDeviation="2"/>
<feComposite in2="hardAlpha" operator="out"/>
<feColorMatrix type="matrix" values="0 0 0 0 0.112828 0 0 0 0 0.109752 0 0 0 0 0.109752 0 0 0 0.25 0"/>
<feBlend mode="normal" in2="BackgroundImageFix" result="effect1_dropShadow_1_6"/>
<feBlend mode="normal" in="SourceGraphic" in2="effect1_dropShadow_1_6" result="shape"/>
</filter>
</defs>
</svg>
