<svg width="14" height="18" viewBox="0 0 14 18" fill="none" xmlns="http://www.w3.org/2000/svg">
<path d="M10.75 9.75H6.25V9H10.75V9.75ZM10.75 6H6.25V6.75H10.75V6ZM10.75 12H6.25V12.75H10.75V12ZM4.75 6H3.25V6.75H4.75V6ZM4.75 9H3.25V9.75H4.75V9ZM4.75 12H3.25V12.75H4.75V12ZM13.75 16.125V1.5H9.9625C9.7885 0.645 9.031 0 8.125 0H5.875C4.969 0 4.21225 0.645 4.0375 1.5H0.25V16.125C0.25 17.1593 1.0915 18 2.125 18H11.875C12.9085 18 13.75 17.1593 13.75 16.125ZM4.75 2.25V1.875C4.75 1.25475 5.25475 0.75 5.875 0.75H8.125C8.74525 0.75 9.25 1.25475 9.25 1.875V2.25H13V16.125C13 16.7453 12.4952 17.25 11.875 17.25H2.125C1.50475 17.25 1 16.7453 1 16.125V2.25H4.75Z" fill="#0074BC"/>
</svg>
