<svg width="19" height="18" viewBox="0 0 19 18" fill="none" xmlns="http://www.w3.org/2000/svg">
<path d="M16.25 0H2.75C2.15326 0 1.58097 0.237053 1.15901 0.65901C0.737053 1.08097 0.5 1.65326 0.5 2.25L0.5 15H5.675L8.531 17.4135C8.80174 17.6423 9.14477 17.7679 9.49925 17.7679C9.85373 17.7679 10.1968 17.6423 10.4675 17.4135L13.325 15H18.5V2.25C18.5 1.65326 18.2629 1.08097 17.841 0.65901C17.419 0.237053 16.8467 0 16.25 0V0ZM17 13.5H12.7745L9.5 16.2675L6.2255 13.5H2V2.25C2 2.05109 2.07902 1.86032 2.21967 1.71967C2.36032 1.57902 2.55109 1.5 2.75 1.5H16.25C16.4489 1.5 16.6397 1.57902 16.7803 1.71967C16.921 1.86032 17 2.05109 17 2.25V13.5Z" fill="black"/>
<path d="M9.5 3.75H5V5.25H9.5V3.75Z" fill="black"/>
<path d="M14 6.75H5V8.25H14V6.75Z" fill="black"/>
<path d="M14 9.75H5V11.25H14V9.75Z" fill="black"/>
</svg>
