<svg width="18" height="18" viewBox="0 0 18 18" fill="none" xmlns="http://www.w3.org/2000/svg">
<g clip-path="url(#clip0_16_533)">
<path d="M15.75 2.25H9.177L6.177 0.75H2.25C1.0095 0.75 0 1.7595 0 3V17.25H6.1065L4.6065 15.75H1.5V6.75H16.5V15.75H13.3927L11.8927 17.25H18V4.5C18 3.2595 16.9905 2.25 15.75 2.25ZM1.5 5.25V3C1.5 2.586 1.83675 2.25 2.25 2.25H5.823L8.823 3.75H15.75C16.164 3.75 16.5 4.086 16.5 4.5V5.25H1.5ZM12.528 14.34L10.0545 16.8135C9.7725 17.0955 9.39825 17.2507 9 17.2507H8.9985C8.60025 17.2507 8.226 17.0947 7.94475 16.8127L5.472 14.34L6.5325 13.2795L8.25075 14.997V9H9.75075V15.0052L11.4683 13.2795L12.5287 14.34H12.528Z" fill="black"/>
</g>
<defs>
<clipPath id="clip0_16_533">
<rect width="18" height="18" fill="white"/>
</clipPath>
</defs>
</svg>
